<?xml version="1.0" encoding="UTF-8"?>
<!DOCTYPE svg PUBLIC "-//W3C//DTD SVG 1.1//EN" "http://www.w3.org/Graphics/SVG/1.1/DTD/svg11.dtd">
<svg version="1.1" id="Layer_1" xmlns="http://www.w3.org/2000/svg" xmlns:xlink="http://www.w3.org/1999/xlink" x="0px" y="0px" width="32px" height="32px" viewBox="0 0 32 32" enable-background="new 0 0 32 32" xml:space="preserve">
  <g id="main">
    <g id="icon">
      <path d="M2.05,7.562L2.076,22.54L15.05,30.01L18.51,28L18.5,28L18.2,27.97L17.92,27.88L17.66,27.74L17.44,27.56L17.26,27.34L17.12,27.08L17.03,26.8L17,26.5L17,23.5L17.03,23.2L17.12,22.92L17.26,22.66L17.44,22.44L17.66,22.26L17.92,22.12L18.2,22.03L18.5,22L22,22L22,18.5L22.03,18.2L22.12,17.92L22.26,17.66L22.44,17.44L22.66,17.26L22.92,17.12L23.2,17.03L23.5,17L26.5,17L26.8,17.03L27.08,17.12L27.34,17.26L27.56,17.44L27.74,17.66L27.88,17.92L27.97,18.2L27.99,18.43L27.97,7.517L15,0.05zM15.77,7.766L16.5,7.876L17.19,8.056L17.87,8.302L18.5,8.609L19.11,8.975L19.67,9.395L20.19,9.866L20.66,10.38L21.08,10.95L21.44,11.55L21.75,12.19L21.99,12.86L22.17,13.56L22.29,14.28L22.32,15.03L22.29,15.78L22.17,16.5L21.99,17.2L21.75,17.87L21.44,18.51L21.08,19.11L20.66,19.67L20.19,20.19L19.67,20.66L19.11,21.08L18.5,21.45L17.87,21.76L17.2,22L16.5,22.18L15.77,22.29L15.03,22.33L14.28,22.29L13.55,22.18L12.85,22L12.18,21.76L11.55,21.45L10.94,21.08L10.38,20.66L9.864,20.19L9.393,19.67L8.973,19.11L8.608,18.51L8.3,17.87L8.055,17.2L7.875,16.5L7.765,15.78L7.727,15.03L7.765,14.28L7.875,13.56L8.055,12.86L8.301,12.19L8.608,11.55L8.973,10.95L9.394,10.38L9.865,9.866L10.38,9.395L10.94,8.975L11.55,8.609L12.18,8.302L12.86,8.056L13.55,7.876L14.28,7.766L15.03,7.728zz" fill="#cfcfcf"/>
    </g>
    <g id="overlay">
      <path d="M31.5,23h-4.5v-4.5c0,-0.276,-0.224,-0.5,-0.5,-0.5h-3c-0.276,0,-0.5,0.224,-0.5,0.5v4.5h-4.5c-0.276,0,-0.5,0.224,-0.5,0.5v3c0,0.276,0.224,0.5,0.5,0.5h4.5v4.5c0,0.276,0.224,0.5,0.5,0.5h3c0.276,0,0.5,-0.224,0.5,-0.5v-4.5h4.5c0.276,0,0.5,-0.224,0.5,-0.5v-3C32,23.224,31.776,23,31.5,23z" fill-rule="evenodd" fill="#4EA17E"/>
    </g>
  </g>
</svg>