<?xml version="1.0" encoding="UTF-8"?>
<!DOCTYPE svg PUBLIC "-//W3C//DTD SVG 1.1//EN" "http://www.w3.org/Graphics/SVG/1.1/DTD/svg11.dtd">
<svg version="1.1" id="Layer_1" xmlns="http://www.w3.org/2000/svg" xmlns:xlink="http://www.w3.org/1999/xlink" x="0px" y="0px" width="16px" height="16px" viewBox="0 0 16 16" enable-background="new 0 0 16 16" xml:space="preserve">
  <g id="main">
    <g id="icon">
      <path d="M0,3.754L0.01309,11.24L6.094,14.73L6.001,14.25L6.097,13.75L6.218,13.53L6.387,13.32L8.237,11.47L7.689,10.92L7.237,11.06L6.5,11.13L5.763,11.06L5.077,10.85L4.456,10.51L3.915,10.07L3.468,9.526L3.131,8.906L2.918,8.221L2.844,7.485L2.918,6.749L3.131,6.064L3.468,5.445L3.915,4.905L4.456,4.46L5.077,4.123L5.763,3.911L6.5,3.837L7.237,3.911L7.923,4.124L8.544,4.46L9.085,4.905L9.532,5.446L9.869,6.065L10.08,6.75L10.09,6.864L11.47,8.238L12.99,6.713L12.99,3.731L6.487,0zz" fill="#cfcfcf"/>
    </g>
    <g id="overlay">
      <path d="M15.906,14.544l-1.362,1.362c-0.125,0.125,-0.329,0.125,-0.454,0l-2.622,-2.622l-2.557,2.557c-0.125,0.125,-0.329,0.125,-0.454,0l-1.362,-1.362c-0.125,-0.125,-0.125,-0.329,0,-0.454l2.557,-2.557L7.094,8.911c-0.125,-0.125,-0.125,-0.329,0,-0.454l1.362,-1.362c0.125,-0.125,0.329,-0.125,0.454,0l2.557,2.557l2.557,-2.557c0.125,-0.125,0.329,-0.125,0.454,0l1.362,1.362c0.125,0.125,0.125,0.329,0,0.454l-2.557,2.557l2.622,2.622C16.031,14.215,16.031,14.418,15.906,14.544z" fill-rule="evenodd" fill="#CD4C32"/>
    </g>
  </g>
</svg>