<?xml version="1.0" encoding="UTF-8"?>
<!DOCTYPE svg PUBLIC "-//W3C//DTD SVG 1.1//EN" "http://www.w3.org/Graphics/SVG/1.1/DTD/svg11.dtd">
<svg version="1.1" id="Layer_1" xmlns="http://www.w3.org/2000/svg" xmlns:xlink="http://www.w3.org/1999/xlink" x="0px" y="0px" width="32px" height="32px" viewBox="0 0 32 32" enable-background="new 0 0 32 32" xml:space="preserve">
  <g id="main">
    <g id="icon">
      <path d="M2.05,7.562L2.076,22.54L15.05,30.01L17.15,28.79L17.15,28.77L17.29,28.51L17.48,28.28L20.76,25L17.61,21.85L17.2,22L16.5,22.18L15.77,22.29L15.03,22.33L14.28,22.29L13.55,22.18L12.85,22L12.18,21.76L11.55,21.45L10.94,21.08L10.38,20.66L9.864,20.19L9.393,19.67L8.973,19.11L8.608,18.51L8.3,17.87L8.055,17.2L7.875,16.5L7.765,15.78L7.727,15.03L7.765,14.28L7.875,13.56L8.055,12.86L8.301,12.19L8.608,11.55L8.973,10.95L9.394,10.38L9.865,9.866L10.38,9.395L10.94,8.975L11.55,8.609L12.18,8.302L12.86,8.056L13.55,7.876L14.28,7.766L15.03,7.728L15.77,7.766L16.5,7.876L17.19,8.056L17.87,8.302L18.5,8.609L19.11,8.975L19.67,9.395L20.19,9.866L20.66,10.38L21.08,10.95L21.44,11.55L21.75,12.19L21.99,12.86L22.17,13.56L22.29,14.28L22.32,15.03L22.29,15.78L22.17,16.5L21.99,17.2L21.85,17.6L25,20.76L27.99,17.76L27.97,7.517L15,0.05zz" fill="#cfcfcf"/>
    </g>
    <g id="overlay">
      <path d="M31.91,29.789l-2.121,2.121c-0.195,0.195,-0.512,0.195,-0.707,0L25,27.828l-3.982,3.982c-0.195,0.195,-0.512,0.195,-0.707,0l-2.121,-2.121c-0.195,-0.195,-0.195,-0.512,0,-0.707L22.172,25l-3.982,-3.982c-0.195,-0.195,-0.195,-0.512,0,-0.707l2.121,-2.121c0.195,-0.195,0.512,-0.195,0.707,0L25,22.172l3.982,-3.982c0.195,-0.195,0.512,-0.195,0.707,0l2.121,2.121c0.195,0.195,0.195,0.512,0,0.707L27.828,25l4.082,4.082C32.106,29.277,32.106,29.594,31.91,29.789z" fill-rule="evenodd" fill="#CD4C32"/>
    </g>
  </g>
</svg>
