<?xml version="1.0" encoding="UTF-8"?>
<!DOCTYPE svg PUBLIC "-//W3C//DTD SVG 1.1//EN" "http://www.w3.org/Graphics/SVG/1.1/DTD/svg11.dtd">
<svg version="1.1" id="Layer_1" xmlns="http://www.w3.org/2000/svg" xmlns:xlink="http://www.w3.org/1999/xlink" x="0px" y="0px" width="16px" height="16px" viewBox="0 0 16 16" enable-background="new 0 0 16 16" xml:space="preserve">
  <g id="main">
    <g id="icon">
      <path d="M0,3.754L0.01309,11.24L6.513,14.97L8.191,14L7.3,14L7.038,13.97L6.794,13.9L6.381,13.62L6.102,13.21L6.026,12.96L6,12.7L6,11.08L5.763,11.06L5.077,10.85L4.456,10.51L3.915,10.07L3.468,9.526L3.131,8.906L2.918,8.221L2.844,7.485L2.918,6.749L3.131,6.064L3.468,5.445L3.915,4.905L4.456,4.46L5.077,4.123L5.763,3.911L6.5,3.837L7.237,3.911L7.923,4.124L8.544,4.46L9.085,4.905L9.532,5.446L9.869,6.065L9.873,6.078L10.04,6.026L10.3,6L12.7,6L12.96,6.026L12.99,6.036L12.99,3.731L6.487,0zz" fill="#cfcfcf"/>
    </g>
    <g id="overlay">
      <path d="M15.7,10h-2.7V7.3c0,-0.166,-0.134,-0.3,-0.3,-0.3h-2.4c-0.166,0,-0.3,0.134,-0.3,0.3v2.7H7.3c-0.166,0,-0.3,0.134,-0.3,0.3v2.4c0,0.166,0.134,0.3,0.3,0.3h2.7v2.7c0,0.166,0.134,0.3,0.3,0.3h2.4c0.166,0,0.3,-0.134,0.3,-0.3v-2.7h2.7c0.166,0,0.3,-0.134,0.3,-0.3v-2.4C16,10.134,15.866,10,15.7,10z" fill="#4EA17E"/>
    </g>
  </g>
</svg>
